<svg width="32" height="32" viewBox="0 0 32 32" fill="none" xmlns="http://www.w3.org/2000/svg">
    <path
        d="M19.2148 20.9297L16.1399 24.4643M24.5958 14.7441L21.521 18.2787M22.3147 12.5927C21.9124 12.2132 21.2847 12.2406 20.9257 12.6533L19.1608 14.6822C18.8018 15.0948 18.8375 15.7478 19.2398 16.1273L24.4336 21.0257C24.7764 21.3491 24.9833 21.7991 25.0093 22.2757C25.0633 23.2629 24.3276 24.1085 23.3789 24.15C22.9208 24.17 22.4703 24.0001 22.1274 23.6767L16.9336 18.7782C16.5313 18.3988 15.9037 18.4262 15.5447 18.8389L13.7797 20.8678C13.4207 21.2804 13.4564 21.9334 13.8587 22.3129L19.3436 27.4842C20.5997 28.6688 22.2516 29.2938 23.9323 29.2204C27.4095 29.0686 30.1092 25.9652 29.9113 22.3465C29.8157 20.5978 29.0547 18.9478 27.7987 17.7632L22.3147 12.5927Z"
        stroke="#7C3AED" stroke-width="2" stroke-linecap="round" stroke-linejoin="round" />
    <path
        d="M12.3862 2.52626L12.1385 4.78411C12.0475 5.59864 12.4453 6.4095 13.1066 6.75754L19.5191 10.1356C19.6003 10.1795 19.6494 10.2797 19.6383 10.3808C19.6272 10.4818 19.5586 10.5601 19.4712 10.5726L3.30339 12.6884C3.21601 12.7009 3.14738 12.7792 3.1363 12.8802C3.12521 12.9813 3.17426 13.0815 3.25545 13.1254L9.66802 16.5035C10.327 16.8501 10.7238 17.6552 10.6371 18.4678L10.3884 20.7347"
        stroke="#F6925C" stroke-width="2" stroke-linecap="round" stroke-linejoin="round" />
</svg>